<?xml version="1.0" encoding="utf-8"?>
<!-- Generator: Adobe Illustrator 27.2.0, SVG Export Plug-In . SVG Version: 6.00 Build 0)  -->
<svg version="1.1" id="Layer_1" xmlns="http://www.w3.org/2000/svg" xmlns:xlink="http://www.w3.org/1999/xlink" x="0px" y="0px"
	 viewBox="0 0 198 74" style="enable-background:new 0 0 198 74;" xml:space="preserve">
<style type="text/css">
	.st0{fill:#FFFFFF;}
	.st1{fill:none;stroke:#E30613;stroke-width:0.606;stroke-miterlimit:3.864;}
	.st2{fill:#E30613;}
	.st3{fill:none;stroke:#E30613;stroke-width:0.0951;stroke-miterlimit:3.864;}
	.st4{fill:none;stroke:#FFFFFF;stroke-width:0.0951;stroke-miterlimit:3.864;}
	.st5{fill:none;stroke:#FFFFFF;stroke-width:0.4848;stroke-miterlimit:3.864;}
	.st6{fill-rule:evenodd;clip-rule:evenodd;fill:#FFFFFF;}
	.st7{fill:none;stroke:#FFFFFF;stroke-width:0.1582;stroke-miterlimit:3.864;}
</style>
<g>
	<g>
		<g>
			<g>
				<path class="st0" d="M47.21,26.89l27.31,0c2.05-0.1,8.61,3.24,5.57,10.44c0.9,0.83,2.13,2.45,1.89,4.95l5.76-15.47h8.39
					l3.26,8.99l0.24,0c0.47-1.06,1.09-3.23,2.04-4.46c1.06-1.36,4.22-5.2,10.93-4.66c0,0,1.81-2.99,5.31-1.08
					c1.28,0.7,1.59,3.28,1.54,3.67c-0.12,0.98,0.62,1.13,1.08,0.45c0.76-1.14,3.3-2.97,6.19-3.27c2.81-0.3,5.75-0.66,10.22,3.21h0.7
					l-1.73-2.88h14.9l-4.93,7.56l-2.57-3.55l-2.48,3.55l-1.73-1.96c1.35,3.55,1.19,5.85,0.97,7.72c-0.43,3.63-3.72,7.83-8.38,8.96
					c-4.05,0.98-8.24,0.5-12.23-4.01c0,0-0.97,1.38-3.04,2.62c-3.24,1.94-6.37,2.02-8.66,1.4c-1.52-0.41-2.6-0.83-3.76-2.06
					c0,0-1.09,1.88-3.81,1.66h-16.7c-2.28,0-2.62-0.84-3.07-1.57l-0.45,0.01c-1,0.88-2.14,1.61-4.09,1.57H62.9c0,0-1.19,0-2-0.68
					c-0.95-0.8-1.95-2.25-1-4.36C60.38,42.6,62,41.55,62,41.55v-6.81c0,0-2.59-1.13-2.92-3.31l-1.98,2.95l-2.52-3.76l-2.54,3.75
					L47.21,26.89z"/>
				<path class="st1" d="M47.21,26.89l27.31,0c2.05-0.1,8.61,3.24,5.57,10.44c0.9,0.83,2.13,2.45,1.89,4.95l5.76-15.47h8.39
					l3.26,8.99l0.24,0c0.47-1.06,1.09-3.23,2.04-4.46c1.06-1.36,4.22-5.2,10.93-4.66c0,0,1.81-2.99,5.31-1.08
					c1.28,0.7,1.59,3.28,1.54,3.67c-0.12,0.98,0.62,1.13,1.08,0.45c0.76-1.14,3.3-2.97,6.19-3.27c2.81-0.3,5.75-0.66,10.22,3.21h0.7
					l-1.73-2.88h14.9l-4.93,7.56l-2.57-3.55l-2.48,3.55l-1.73-1.96c1.35,3.55,1.19,5.85,0.97,7.72c-0.43,3.63-3.72,7.83-8.38,8.96
					c-4.05,0.98-8.24,0.5-12.23-4.01c0,0-0.97,1.38-3.04,2.62c-3.24,1.94-6.37,2.02-8.66,1.4c-1.52-0.41-2.6-0.83-3.76-2.06
					c0,0-1.09,1.88-3.81,1.66h-16.7c-2.28,0-2.62-0.84-3.07-1.57l-0.45,0.01c-1,0.88-2.14,1.61-4.09,1.57H62.9c0,0-1.19,0-2-0.68
					c-0.95-0.8-1.95-2.25-1-4.36C60.38,42.6,62,41.55,62,41.55v-6.81c0,0-2.59-1.13-2.92-3.31l-1.98,2.95l-2.52-3.76l-2.54,3.75
					L47.21,26.89z"/>
				<polygon class="st2" points="49.77,28.31 54.32,28.31 52.06,31.94 				"/>
				<polygon class="st3" points="49.77,28.31 54.32,28.31 52.06,31.94 				"/>
				<polygon class="st2" points="54.81,28.31 59.36,28.31 57.1,31.94 				"/>
				<polygon class="st3" points="54.81,28.31 59.36,28.31 57.1,31.94 				"/>
				<polygon class="st2" points="138.57,28.31 143.11,28.31 140.85,31.94 				"/>
				<polygon class="st3" points="138.57,28.31 143.11,28.31 140.85,31.94 				"/>
				<polygon class="st2" points="143.61,28.31 148.15,28.31 145.89,31.94 				"/>
				<polygon class="st3" points="143.61,28.31 148.15,28.31 145.89,31.94 				"/>
				<path class="st2" d="M109.38,28.58c-3.5,0.4-6.76,3.19-7.66,6.42c-0.71,2.53-1.34,7.39,3.33,10.78
					c2.83,2.06,5.25,2.36,8.52,1.28c2.07-0.69,4.55-2.64,4.85-3.75c0.76-2.77-1.38-3.92-2.88-2.53c-1.57,1.94-4.4,3.46-5.92,2.18
					c-1.73-1.45-1.32-3.35-1.34-4.88c-0.02-1.67-0.07-5.1,2.15-5.44c1.34-0.21,3.58-0.04,4.21,1.69c0.71,1.99,2.66,2.28,3.02,0.93
					c0.41-1.56,0.1-4.78,0.1-4.78s-0.14-1.22-0.14-1.79c-0.02-1.94-3-3.06-4.19-0.24C113.43,28.46,111.32,28.37,109.38,28.58z"/>
				<path class="st3" d="M109.38,28.58c-3.5,0.4-6.76,3.19-7.66,6.42c-0.71,2.53-1.34,7.39,3.33,10.78
					c2.83,2.06,5.25,2.36,8.52,1.28c2.07-0.69,4.55-2.64,4.85-3.75c0.76-2.77-1.38-3.92-2.88-2.53c-1.57,1.94-4.4,3.46-5.92,2.18
					c-1.73-1.45-1.32-3.35-1.34-4.88c-0.02-1.67-0.07-5.1,2.15-5.44c1.34-0.21,3.58-0.04,4.21,1.69c0.71,1.99,2.66,2.28,3.02,0.93
					c0.41-1.56,0.1-4.78,0.1-4.78s-0.14-1.22-0.14-1.79c-0.02-1.94-3-3.06-4.19-0.24C113.43,28.46,111.32,28.37,109.38,28.58z"/>
				<path class="st2" d="M118.86,37.89c0-5.42,4.39-9.82,9.8-9.82c5.42,0,9.8,4.4,9.8,9.82c0,5.43-4.39,9.83-9.8,9.83
					C123.24,47.72,118.86,43.32,118.86,37.89z"/>
				<path class="st3" d="M118.86,37.89c0-5.42,4.39-9.82,9.8-9.82c5.42,0,9.8,4.4,9.8,9.82c0,5.43-4.39,9.83-9.8,9.83
					C123.24,47.72,118.86,43.32,118.86,37.89z"/>
				<path class="st0" d="M130.52,42.08c-0.19,0.98-1.03,1.71-2.03,1.71c-1.01,0-1.84-0.74-2.03-1.71v-7.6
					c0.19-0.98,1.03-1.71,2.03-1.71c1,0,1.84,0.74,2.03,1.71V42.08z"/>
				<path class="st4" d="M130.52,42.08c-0.19,0.98-1.03,1.71-2.03,1.71c-1.01,0-1.84-0.74-2.03-1.71v-7.6
					c0.19-0.98,1.03-1.71,2.03-1.71c1,0,1.84,0.74,2.03,1.71V42.08z"/>
				<path class="st2" d="M89.34,43.24c0.8,0.28,1.41,1.01,1.41,1.86c0,1.1-0.98,1.99-2.14,1.99h-5.37c-1.16,0-2.1-0.89-2.1-1.99
					c0-1.1,0.94-1.93,2.1-1.93c0.17,0,0.33-0.04,0.48-0.01l5.17-14.82h6.09l5.05,14.8c0.15-0.03,0.65,0.06,0.81,0.06
					c1.16,0,1.92,0.79,1.92,1.89c0,1.1-0.75,1.99-1.92,1.99h-6.37c-1.16,0-2.11-0.89-2.11-1.99c0-0.82,0.31-1.67,1.5-1.81
					l-0.48-1.33h-3.74L89.34,43.24z"/>
				<path class="st3" d="M89.34,43.24c0.8,0.28,1.41,1.01,1.41,1.86c0,1.1-0.98,1.99-2.14,1.99h-5.37c-1.16,0-2.1-0.89-2.1-1.99
					c0-1.1,0.94-1.93,2.1-1.93c0.17,0,0.33-0.04,0.48-0.01l5.17-14.82h6.09l5.05,14.8c0.15-0.03,0.65,0.06,0.81,0.06
					c1.16,0,1.92,0.79,1.92,1.89c0,1.1-0.75,1.99-1.92,1.99h-6.37c-1.16,0-2.11-0.89-2.11-1.99c0-0.82,0.31-1.67,1.5-1.81
					l-0.48-1.33h-3.74L89.34,43.24z"/>
				<polygon class="st0" points="92.6,39.14 90.32,39.14 91.41,36.09 				"/>
				<polygon class="st4" points="92.6,39.14 90.32,39.14 91.41,36.09 				"/>
				<path class="st2" d="M63.58,47.07c-0.1,0.01-0.2,0.02-0.3,0.02c-1.16,0-2.11-0.89-2.11-1.99c0-1.1,0.94-1.98,2.11-1.98
					c0.17,0,0.64-0.06,0.8-0.03V32.72c-0.15,0.04-0.86-0.06-1.03-0.06c-1.16,0-2.11-1.1-2.11-2.2c0-1.1,0.94-2.1,2.11-2.1
					c0.1,0,0.2,0.01,0.3,0.02l10.68,0.01c2.07-0.07,4.19,1.74,4.95,3.75c0.76,2.01,0.14,3.53-0.14,4.07c-0.28,0.54-0.52,1.1-1,1.52
					c0,0,1.21,0.78,1.71,1.59c0.5,0.81,1.1,1.89,0.9,3.4c-0.19,1.52-0.76,2.45-1.14,2.94c-0.38,0.49-1.71,1.42-3.24,1.42
					L63.58,47.07z"/>
				<path class="st3" d="M63.58,47.07c-0.1,0.01-0.2,0.02-0.3,0.02c-1.16,0-2.11-0.89-2.11-1.99c0-1.1,0.94-1.98,2.11-1.98
					c0.17,0,0.64-0.06,0.8-0.03V32.72c-0.15,0.04-0.86-0.06-1.03-0.06c-1.16,0-2.11-1.1-2.11-2.2c0-1.1,0.94-2.1,2.11-2.1
					c0.1,0,0.2,0.01,0.3,0.02l10.68,0.01c2.07-0.07,4.19,1.74,4.95,3.75c0.76,2.01,0.14,3.53-0.14,4.07c-0.28,0.54-0.52,1.1-1,1.52
					c0,0,1.21,0.78,1.71,1.59c0.5,0.81,1.1,1.89,0.9,3.4c-0.19,1.52-0.76,2.45-1.14,2.94c-0.38,0.49-1.71,1.42-3.24,1.42
					L63.58,47.07z"/>
				<path class="st0" d="M70.66,35.69v-2.87h1.88c0.79,0,1.43,0.66,1.43,1.47c0,0.78-0.59,1.36-1.33,1.41L70.66,35.69z"/>
				<path class="st4" d="M70.66,35.69v-2.87h1.88c0.79,0,1.43,0.66,1.43,1.47c0,0.78-0.59,1.36-1.33,1.41L70.66,35.69z"/>
				<path class="st0" d="M70.66,42.97V40.1h1.88c0.79,0,1.67,0.44,1.67,1.49c-0.02,0.88-0.83,1.33-1.57,1.38L70.66,42.97z"/>
				<path class="st4" d="M70.66,42.97V40.1h1.88c0.79,0,1.67,0.44,1.67,1.49c-0.02,0.88-0.83,1.33-1.57,1.38L70.66,42.97z"/>
				<path class="st5" d="M141.61,46.7c0-1.12,0.91-2.02,2.02-2.02c1.11,0,2.02,0.91,2.02,2.02c0,1.11-0.91,2.02-2.02,2.02
					C142.51,48.72,141.61,47.81,141.61,46.7z"/>
				<path class="st6" d="M143.18,46.36v-0.41c0-0.11-0.02-0.2,0.1-0.24c0.1-0.04,0.31-0.05,0.42-0.05c0.28,0,0.51,0.09,0.51,0.42
					c0,0.14-0.05,0.28-0.17,0.35c-0.13,0.07-0.32,0.07-0.47,0.07h-0.23c-0.07,0-0.16,0.02-0.16-0.07L143.18,46.36 M144.4,47.18
					c0-0.33-0.06-0.52-0.41-0.56c0.33-0.06,0.53-0.21,0.53-0.57c0-0.19-0.08-0.38-0.25-0.48c-0.14-0.09-0.35-0.12-0.52-0.1
					c-0.1,0-0.34,0.03-0.63,0.04c-0.16-0.01-0.34-0.02-0.54-0.04c-0.07,0-0.15,0.04-0.15,0.12c0,0.07,0.05,0.12,0.11,0.12
					c0.05,0,0.11-0.02,0.16-0.02c0.09,0,0.15,0.03,0.17,0.13c0.02,0.1,0.02,0.31,0.02,0.42v0.84c0,0.11,0.01,0.32-0.02,0.42
					c-0.02,0.09-0.08,0.13-0.17,0.13c-0.06,0-0.11-0.02-0.16-0.02c-0.06,0-0.11,0.05-0.11,0.12c0,0.08,0.07,0.12,0.15,0.12
					c0.09,0,0.28-0.04,0.46-0.04c0.17,0,0.37,0.04,0.46,0.04c0.08,0,0.15-0.04,0.15-0.12c0-0.07-0.05-0.12-0.11-0.12
					c-0.05,0-0.11,0.02-0.16,0.02c-0.09,0-0.15-0.04-0.17-0.13c-0.02-0.1-0.02-0.31-0.02-0.42v-0.18c0-0.14,0.09-0.16,0.33-0.16
					c0.14,0,0.35-0.02,0.47,0.06c0.13,0.08,0.12,0.23,0.12,0.37v0.21c0,0.24,0.07,0.46,0.35,0.46h0.16c0.05,0,0.1,0.01,0.14,0.01
					c0.08,0,0.13-0.06,0.13-0.13c0-0.08-0.06-0.12-0.14-0.12c-0.05,0-0.11,0.01-0.16,0.01c-0.19,0-0.19-0.09-0.19-0.25V47.18z"/>
				<path class="st7" d="M143.18,46.36v-0.41c0-0.11-0.02-0.2,0.1-0.24c0.1-0.04,0.31-0.05,0.42-0.05c0.28,0,0.51,0.09,0.51,0.42
					c0,0.14-0.05,0.28-0.17,0.35c-0.13,0.07-0.32,0.07-0.47,0.07h-0.23c-0.07,0-0.16,0.02-0.16-0.07L143.18,46.36z M144.4,47.18
					c0-0.33-0.06-0.52-0.41-0.56c0.33-0.06,0.53-0.21,0.53-0.57c0-0.19-0.08-0.38-0.25-0.48c-0.14-0.09-0.35-0.12-0.52-0.1
					c-0.1,0-0.34,0.03-0.63,0.04c-0.16-0.01-0.34-0.02-0.54-0.04c-0.07,0-0.15,0.04-0.15,0.12c0,0.07,0.05,0.12,0.11,0.12
					c0.05,0,0.11-0.02,0.16-0.02c0.09,0,0.15,0.03,0.17,0.13c0.02,0.1,0.02,0.31,0.02,0.42v0.84c0,0.11,0.01,0.32-0.02,0.42
					c-0.02,0.09-0.08,0.13-0.17,0.13c-0.06,0-0.11-0.02-0.16-0.02c-0.06,0-0.11,0.05-0.11,0.12c0,0.08,0.07,0.12,0.15,0.12
					c0.09,0,0.28-0.04,0.46-0.04c0.17,0,0.37,0.04,0.46,0.04c0.08,0,0.15-0.04,0.15-0.12c0-0.07-0.05-0.12-0.11-0.12
					c-0.05,0-0.11,0.02-0.16,0.02c-0.09,0-0.15-0.04-0.17-0.13c-0.02-0.1-0.02-0.31-0.02-0.42v-0.18c0-0.14,0.09-0.16,0.33-0.16
					c0.14,0,0.35-0.02,0.47,0.06c0.13,0.08,0.12,0.23,0.12,0.37v0.21c0,0.24,0.07,0.46,0.35,0.46h0.16c0.05,0,0.1,0.01,0.14,0.01
					c0.08,0,0.13-0.06,0.13-0.13c0-0.08-0.06-0.12-0.14-0.12c-0.05,0-0.11,0.01-0.16,0.01c-0.19,0-0.19-0.09-0.19-0.25V47.18z"/>
			</g>
		</g>
		<g>
			<path class="st0" d="M86.42,18.48c-0.03,0.1,0.03,0.17,0.06,0.24c0.22,0.43,0.39,0.88,0.5,1.34c0.13,0.53,0.14,1.06,0.06,1.61
				c-0.07,0.42-0.23,0.81-0.49,1.14c-0.3,0.45-0.73,0.68-1.27,0.75c-0.33,0.06-0.66,0.13-1.01,0.17c-0.34,0.03-0.68-0.01-0.99-0.16
				c-0.79-0.36-1.24-0.98-1.34-1.84c-0.1-0.89,0.17-1.65,0.69-2.36c0.17-0.23,0.36-0.43,0.57-0.63c0.35-0.3,0.75-0.47,1.22-0.47
				c0.07,0,0.16,0,0.23,0c0.23-0.01,0.24-0.04,0.16-0.23c-0.1-0.22-0.2-0.42-0.27-0.63c-0.14-0.42-0.26-0.83-0.24-1.27
				c0.01-0.66,0.2-1.27,0.57-1.8c0.4-0.55,0.93-0.78,1.61-0.65c0.24,0.04,0.49,0.09,0.73,0.14c0.68,0.14,1.15,0.72,1.14,1.42
				c-0.01,0.92-0.29,1.75-0.89,2.47c-0.06,0.09-0.12,0.16-0.19,0.23C87.03,18.22,86.79,18.46,86.42,18.48z M85.78,21.18
				c0-0.09,0-0.17,0-0.27c-0.07-0.75-0.32-1.45-0.62-2.13c-0.09-0.2-0.19-0.24-0.39-0.17c-0.13,0.04-0.26,0.12-0.37,0.2
				c-0.65,0.49-1.14,1.09-1.38,1.87c-0.23,0.81-0.12,1.55,0.56,2.13c0.27,0.24,0.58,0.4,0.93,0.47c0.2,0.04,0.36,0.01,0.5-0.14
				c0.11-0.14,0.26-0.27,0.34-0.43C85.64,22.23,85.8,21.74,85.78,21.18z M87.37,15.39c0-0.09,0-0.16,0-0.24
				c-0.03-0.3-0.13-0.59-0.32-0.83c-0.2-0.24-0.3-0.27-0.59-0.13c-0.12,0.06-0.23,0.12-0.32,0.22c-0.49,0.55-0.73,1.19-0.66,1.93
				c0.07,0.63,0.36,1.16,0.65,1.71c0.06,0.1,0.09,0.1,0.17,0c0.1-0.12,0.19-0.23,0.27-0.36C87.06,17,87.34,16.22,87.37,15.39z"/>
			<path class="st0" d="M88.53,20.74c0.04-1.97,0.5-3.82,1.47-5.55c0.26-0.43,0.55-0.85,0.96-1.15c0.23-0.19,0.49-0.33,0.79-0.33
				c0.01-0.01,0.04,0,0.06-0.01c0.16-0.13,0.32-0.07,0.47-0.03c0.11,0.03,0.24,0.06,0.37,0.09c0.37,0.07,0.63,0.3,0.81,0.62
				c0.22,0.4,0.32,0.82,0.37,1.27c0.13,0.83,0.09,1.65-0.03,2.49c-0.14,1.11-0.42,2.2-0.86,3.23c-0.24,0.58-0.53,1.14-0.92,1.62
				c-0.16,0.2-0.33,0.39-0.53,0.56c-0.3,0.24-0.63,0.4-1.04,0.37c-0.14,0-0.27,0-0.42,0c-0.34,0-0.62-0.14-0.83-0.42
				c-0.26-0.32-0.39-0.7-0.5-1.09C88.57,21.86,88.51,21.3,88.53,20.74z M93.06,16.78c0.01-0.33,0-0.66-0.04-0.99
				c-0.06-0.42-0.14-0.82-0.32-1.19c-0.09-0.22-0.22-0.42-0.39-0.58c-0.13-0.11-0.16-0.11-0.3-0.03c-0.09,0.07-0.19,0.14-0.26,0.22
				c-0.32,0.29-0.58,0.63-0.79,1.01c-0.46,0.73-0.78,1.55-1.01,2.39c-0.39,1.38-0.6,2.77-0.46,4.21c0.04,0.42,0.13,0.83,0.3,1.24
				c0.09,0.19,0.22,0.36,0.37,0.5c0.1,0.07,0.19,0.09,0.3,0.01c0.14-0.09,0.27-0.19,0.4-0.3c0.45-0.43,0.78-0.95,1.04-1.5
				C92.66,20.19,93.04,18.52,93.06,16.78z"/>
			<path class="st0" d="M100.03,17.51c0.09-0.23,0.17-0.45,0.26-0.68c0.04-0.1,0.09-0.22,0.14-0.33c0.07-0.14,0.13-0.17,0.29-0.1
				c0.11,0.04,0.23,0.1,0.34,0.16c0.19,0.09,0.2,0.14,0.16,0.34c-0.04,0.17-0.1,0.33-0.16,0.5c-0.26,0.7-0.55,1.41-0.73,2.13
				c-0.12,0.49-0.23,0.98-0.2,1.48c0,0.09-0.04,0.22,0.07,0.26c0.09,0.03,0.14-0.09,0.2-0.16c0.3-0.33,0.56-0.7,0.82-1.06
				c0.23-0.34,0.47-0.68,0.7-1.02c0.01-0.03,0.04-0.06,0.06-0.09c0.06-0.04,0.13-0.07,0.2-0.01c0.06,0.04,0.01,0.11-0.01,0.16
				c-0.13,0.23-0.27,0.46-0.42,0.69c-0.24,0.37-0.49,0.76-0.73,1.15c-0.12,0.17-0.24,0.33-0.39,0.47c-0.26,0.23-0.56,0.24-0.88,0.19
				c-0.16-0.03-0.24-0.16-0.3-0.29c-0.11-0.26-0.13-0.52-0.11-0.79c0.01-0.23,0-0.46,0.07-0.69c-0.09,0-0.1,0.06-0.13,0.09
				c-0.36,0.46-0.72,0.91-1.08,1.35c-0.27,0.33-0.62,0.36-0.99,0.29c-0.17-0.03-0.24-0.16-0.3-0.3c-0.07-0.2-0.11-0.42-0.1-0.63
				c0.01-1.27,0.32-2.44,0.99-3.52c0.09-0.14,0.2-0.29,0.32-0.42c0.23-0.24,0.53-0.45,0.98-0.26c0.07,0.03,0.14,0.06,0.22,0.09
				c0.33,0.13,0.52,0.37,0.62,0.72c0.01,0.09,0.04,0.19,0.06,0.29C100,17.51,100.01,17.51,100.03,17.51z M97.57,20.62
				c0,0.09,0,0.17,0,0.27c0.01,0.07-0.03,0.17,0.06,0.22c0.09,0.03,0.13-0.07,0.19-0.13c0.52-0.52,0.96-1.09,1.42-1.65
				c0.2-0.24,0.39-0.5,0.33-0.83c0-0.01,0.01-0.01,0.01-0.03c0.06-0.43-0.01-0.85-0.11-1.27c-0.03-0.14-0.09-0.27-0.19-0.37
				c-0.1-0.14-0.19-0.16-0.34-0.07c-0.06,0.04-0.13,0.09-0.17,0.14c-0.1,0.11-0.19,0.24-0.26,0.37
				C97.9,18.31,97.61,19.43,97.57,20.62z"/>
			<path class="st0" d="M102.88,18.79c0.24-0.29,0.47-0.58,0.7-0.86c0.4-0.47,0.81-0.93,1.29-1.31c0.07-0.06,0.14-0.11,0.22-0.17
				c0.16-0.11,0.32-0.16,0.49-0.04c0.07,0.04,0.14,0.07,0.22,0.1c0.19,0.09,0.24,0.17,0.22,0.39c-0.01,0.19-0.06,0.36-0.11,0.53
				c-0.13,0.34-0.24,0.7-0.37,1.05c-0.24,0.68-0.49,1.37-0.65,2.07c-0.04,0.19-0.07,0.36-0.07,0.55c0,0.06-0.01,0.11,0.03,0.19
				c0.1-0.07,0.17-0.16,0.26-0.24c0.45-0.55,0.88-1.09,1.29-1.64c0.1-0.13,0.22-0.26,0.33-0.39c0.04-0.07,0.1-0.11,0.2-0.11
				c0.03,0,0.07,0,0.09,0.03c0.03,0.03,0.01,0.06-0.01,0.1c-0.01,0.01-0.01,0.03-0.03,0.04c-0.47,0.65-0.93,1.29-1.41,1.94
				c-0.11,0.16-0.24,0.32-0.4,0.46c-0.16,0.17-0.57,0.22-0.78,0.1c-0.1-0.04-0.14-0.14-0.19-0.24c-0.12-0.27-0.12-0.58-0.06-0.86
				c0.14-0.89,0.42-1.75,0.75-2.59c0.1-0.24,0.19-0.49,0.3-0.76c-0.13,0.03-0.19,0.1-0.26,0.16c-0.36,0.34-0.72,0.7-1.04,1.09
				c-0.46,0.56-0.91,1.14-1.37,1.7c-0.1,0.13-0.17,0.27-0.23,0.43c-0.1,0.3-0.22,0.59-0.33,0.89c-0.07,0.2-0.12,0.22-0.32,0.2
				c-0.1-0.01-0.2-0.03-0.3-0.04c-0.14-0.01-0.19-0.07-0.14-0.22c0.04-0.23,0.11-0.45,0.17-0.68c0.39-1.37,0.85-2.72,1.31-4.05
				c0-0.01,0-0.03,0.01-0.04c0.1-0.24,0.14-0.26,0.37-0.16c0.06,0.03,0.12,0.04,0.16,0.07c0.26,0.1,0.27,0.13,0.2,0.4
				c-0.07,0.26-0.16,0.52-0.23,0.78c-0.12,0.37-0.23,0.76-0.35,1.14C102.86,18.78,102.86,18.79,102.88,18.79z"/>
			<path class="st0" d="M109.67,19.94c0.19-0.01,0.35-0.09,0.49-0.16c0.32-0.16,0.6-0.33,0.91-0.53c0.1-0.07,0.22-0.16,0.3-0.26
				c0.04-0.03,0.09-0.09,0.14-0.09c0.06-0.01,0.14-0.04,0.19,0.03c0.04,0.06-0.03,0.1-0.06,0.14c-0.06,0.09-0.14,0.16-0.22,0.23
				c-0.3,0.23-0.6,0.42-0.92,0.62c-0.24,0.14-0.52,0.23-0.8,0.24c-0.16,0.01-0.23,0.07-0.3,0.2c-0.14,0.27-0.33,0.53-0.53,0.76
				c-0.11,0.14-0.23,0.27-0.39,0.37c-0.2,0.13-0.42,0.22-0.68,0.19c-0.11-0.01-0.23-0.01-0.35-0.01c-0.45,0-0.76-0.24-0.96-0.62
				c-0.12-0.22-0.17-0.45-0.17-0.69c-0.03-0.49,0.07-0.95,0.23-1.39c0.09-0.23,0.17-0.45,0.27-0.65c0.04-0.12,0.1-0.23,0.22-0.29
				c0.07-0.04,0.09-0.13,0.1-0.2c0.07-0.39,0.24-0.73,0.5-1.02c0.26-0.3,0.59-0.47,0.99-0.52c0.07-0.01,0.13,0,0.2,0.01
				c0.2,0.03,0.37,0.09,0.56,0.14c0.36,0.13,0.59,0.39,0.69,0.76c0.1,0.4,0.11,0.82,0.01,1.24c-0.09,0.43-0.23,0.85-0.39,1.27
				C109.69,19.79,109.65,19.84,109.67,19.94z M107.39,19.17c-0.16,0.53-0.24,1.02-0.19,1.52c0.03,0.2,0.11,0.4,0.26,0.56
				c0.13,0.16,0.22,0.17,0.39,0.06c0.14-0.1,0.24-0.23,0.36-0.34c0.19-0.2,0.35-0.4,0.49-0.63c0.11-0.19,0.11-0.2-0.09-0.27
				c-0.16-0.06-0.3-0.11-0.45-0.2C107.89,19.67,107.63,19.47,107.39,19.17z M107.86,18.28c0,0.19,0.01,0.36,0.09,0.53
				c0.17,0.43,0.47,0.73,0.85,0.98c0.13,0.07,0.17,0.06,0.24-0.1c0.27-0.59,0.46-1.21,0.52-1.85c0.01-0.27,0-0.53-0.1-0.78
				c-0.2-0.47-0.34-0.55-0.78-0.27C108.12,17.13,107.89,17.64,107.86,18.28z"/>
			<path class="st0" d="M111.76,18.12c-0.01,0.19,0.04,0.37,0.11,0.53c0.1,0.22,0.23,0.4,0.35,0.59c0.07,0.13,0.16,0.14,0.29,0.12
				c0.37-0.09,0.75-0.16,1.12-0.23c0.29-0.06,0.57-0.13,0.86-0.19c0.1-0.01,0.22-0.03,0.29,0.09c0.04,0.09,0.03,0.13-0.06,0.17
				c-0.06,0.01-0.12,0.03-0.19,0.04c-0.6,0.13-1.21,0.27-1.81,0.4c-0.01,0-0.04,0.01-0.07,0.01c-0.09,0.03-0.11,0.06-0.07,0.14
				c0.04,0.07,0.09,0.14,0.11,0.23c0.14,0.29,0.23,0.57,0.14,0.91c-0.09,0.32-0.29,0.52-0.62,0.57c-0.24,0.06-0.5,0.06-0.76,0.07
				c-0.17,0-0.35-0.06-0.49-0.17c-0.35-0.26-0.6-0.58-0.82-0.95c-0.03-0.06-0.06-0.13-0.07-0.19c-0.07-0.23,0.01-0.37,0.24-0.43
				c0.33-0.09,0.68-0.16,1.02-0.23c0.04-0.01,0.1-0.03,0.16-0.04c0.06-0.01,0.07-0.06,0.04-0.1c-0.03-0.04-0.06-0.1-0.09-0.14
				c-0.14-0.22-0.27-0.43-0.37-0.66c-0.3-0.68-0.14-1.34,0.43-1.81c0.29-0.23,0.59-0.45,0.96-0.53c0.17-0.03,0.35-0.03,0.52,0.03
				c0.23,0.07,0.45,0.14,0.66,0.24c0.4,0.17,0.56,0.52,0.43,0.95c-0.09,0.27-0.22,0.52-0.42,0.72c-0.16,0.16-0.33,0.19-0.53,0.1
				c-0.07-0.04-0.1-0.1-0.07-0.17c0.03-0.07,0.06-0.12,0.1-0.17c0.11-0.22,0.19-0.45,0.23-0.69c0.03-0.14,0.01-0.29-0.06-0.43
				c-0.06-0.14-0.13-0.19-0.29-0.16c-0.13,0.03-0.24,0.09-0.37,0.14c-0.24,0.16-0.47,0.33-0.68,0.56
				C111.85,17.63,111.74,17.86,111.76,18.12z M112.09,20.71c-0.03-0.27-0.12-0.5-0.23-0.73c-0.06-0.1-0.13-0.13-0.24-0.1
				c-0.3,0.06-0.62,0.13-0.92,0.19c-0.16,0.03-0.17,0.06-0.1,0.22c0.09,0.16,0.22,0.3,0.34,0.43c0.19,0.22,0.4,0.4,0.66,0.52
				c0.17,0.09,0.26,0.06,0.36-0.1C112.05,20.99,112.08,20.85,112.09,20.71z"/>
		</g>
		<g>
			<path class="st0" d="M102.81,14.53c1.27,0.01,2.54-0.13,3.77-0.42"/>
		</g>
	</g>
	<g>
		<path class="st0" d="M82.25,57.27c-0.28,0.35-0.54,0.7-0.84,1.03c-0.04,0.06-0.09,0.1-0.13,0.15c-0.18,0.25-0.43,0.27-0.71,0.23
			c-0.12-0.02-0.2-0.08-0.24-0.17c-0.05-0.12-0.09-0.24-0.09-0.36c-0.04-1.11,0.23-2.13,0.87-3.04c0.05-0.08,0.13-0.15,0.21-0.22
			c0.16-0.14,0.34-0.18,0.54-0.13c0.12,0.04,0.24,0.09,0.36,0.14c0.18,0.09,0.28,0.25,0.35,0.42c0.04,0.13,0.05,0.25,0.07,0.38
			c0.07,0,0.05-0.06,0.07-0.08c0.26-0.79,0.51-1.59,0.77-2.38c0.15-0.47,0.33-0.91,0.5-1.37c0.11-0.26,0.13-0.27,0.37-0.13
			c0.02,0.01,0.03,0.01,0.04,0.02c0.15,0.09,0.16,0.1,0.11,0.27c-0.21,0.63-0.41,1.26-0.62,1.89c-0.27,0.84-0.56,1.66-0.84,2.49
			c-0.16,0.49-0.3,0.98-0.39,1.48c-0.02,0.15-0.02,0.31-0.01,0.47c0,0.02,0.01,0.05,0.03,0.06c0.03,0.01,0.05-0.01,0.08-0.03
			c0.11-0.14,0.23-0.28,0.33-0.43c0.29-0.41,0.58-0.81,0.86-1.23c0.03-0.05,0.07-0.12,0.13-0.13c0.04-0.01,0.09-0.02,0.12,0.01
			c0.03,0.04,0.01,0.08-0.01,0.11c-0.16,0.26-0.33,0.52-0.48,0.78c-0.17,0.27-0.35,0.54-0.51,0.81c-0.03,0.05-0.09,0.11-0.12,0.16
			c-0.14,0.22-0.36,0.25-0.6,0.23c-0.13-0.01-0.21-0.1-0.25-0.22c-0.1-0.23-0.1-0.47-0.07-0.71C82.19,57.62,82.22,57.45,82.25,57.27
			z M80.85,58.36c0.08-0.03,0.11-0.08,0.14-0.11c0.45-0.47,0.86-0.97,1.25-1.48c0.04-0.05,0.08-0.12,0.08-0.18
			c0.03-0.41,0.04-0.81-0.07-1.21c-0.03-0.11-0.08-0.21-0.14-0.3c-0.08-0.09-0.12-0.1-0.23-0.04c-0.1,0.04-0.17,0.12-0.24,0.21
			c-0.14,0.2-0.26,0.4-0.35,0.62c-0.29,0.67-0.46,1.38-0.49,2.12C80.81,58.1,80.81,58.22,80.85,58.36z"/>
		<path class="st0" d="M84.74,58.74c-0.05,0-0.09,0-0.12,0c-0.49,0.01-0.77-0.27-0.87-0.74c-0.07-0.33-0.03-0.64,0.04-0.96
			c0.16-0.71,0.48-1.34,0.97-1.87c0.18-0.21,0.4-0.38,0.68-0.46c0.17-0.03,0.34-0.02,0.5,0.05c0.09,0.04,0.16,0.09,0.25,0.12
			c0.35,0.13,0.54,0.49,0.45,0.92c-0.04,0.18-0.13,0.37-0.25,0.52c-0.26,0.31-0.58,0.55-0.97,0.7c-0.27,0.1-0.54,0.12-0.83,0.05
			c-0.15-0.03-0.16-0.02-0.2,0.12c-0.07,0.25-0.09,0.51-0.05,0.77c0.01,0.18,0.08,0.35,0.22,0.49c0.1,0.1,0.21,0.12,0.34,0.06
			c0.16-0.05,0.33-0.14,0.47-0.24c0.42-0.27,0.8-0.6,1.17-0.92c0.24-0.21,0.48-0.41,0.7-0.63c0.01-0.02,0.03-0.04,0.07-0.05
			c0.04-0.02,0.1-0.03,0.14,0.01c0.05,0.04,0.01,0.09-0.02,0.13c-0.03,0.04-0.07,0.09-0.11,0.13c-0.47,0.51-0.99,0.96-1.52,1.39
			c-0.14,0.11-0.29,0.2-0.46,0.27C85.14,58.72,84.94,58.75,84.74,58.74z M86.05,55.3c0-0.02,0-0.04,0-0.07
			c-0.01-0.2-0.05-0.22-0.23-0.14c-0.17,0.08-0.31,0.18-0.45,0.31c-0.38,0.35-0.63,0.78-0.8,1.26c-0.02,0.04-0.05,0.1-0.02,0.13
			c0.03,0.05,0.1,0.02,0.15,0c0.5-0.12,0.87-0.43,1.14-0.87C85.96,55.74,86.05,55.52,86.05,55.3z"/>
		<path class="st0" d="M87.5,56.08c-0.01,0.14,0.03,0.28,0.09,0.4c0.08,0.16,0.17,0.3,0.26,0.45c0.05,0.1,0.12,0.11,0.22,0.09
			c0.28-0.06,0.56-0.12,0.85-0.17c0.22-0.04,0.43-0.1,0.65-0.14c0.08-0.01,0.16-0.02,0.22,0.07c0.03,0.06,0.02,0.1-0.04,0.13
			c-0.04,0.01-0.09,0.02-0.14,0.03c-0.46,0.1-0.91,0.21-1.37,0.3c-0.01,0-0.03,0.01-0.05,0.01c-0.07,0.02-0.09,0.04-0.05,0.11
			c0.03,0.05,0.07,0.11,0.09,0.17c0.11,0.22,0.17,0.43,0.11,0.68c-0.07,0.24-0.22,0.39-0.47,0.43c-0.18,0.04-0.38,0.04-0.58,0.05
			c-0.13,0-0.26-0.04-0.37-0.13c-0.26-0.2-0.46-0.43-0.62-0.72c-0.02-0.04-0.04-0.1-0.05-0.14c-0.05-0.17,0.01-0.28,0.18-0.33
			c0.25-0.07,0.51-0.12,0.77-0.17c0.03-0.01,0.08-0.02,0.12-0.03c0.04-0.01,0.05-0.04,0.03-0.08c-0.02-0.03-0.04-0.08-0.07-0.11
			c-0.11-0.16-0.21-0.33-0.28-0.5c-0.23-0.51-0.11-1.01,0.33-1.37c0.22-0.17,0.45-0.34,0.73-0.4c0.13-0.02,0.26-0.02,0.39,0.02
			c0.17,0.05,0.34,0.11,0.5,0.18c0.3,0.13,0.42,0.39,0.33,0.72c-0.07,0.21-0.16,0.39-0.32,0.54c-0.12,0.12-0.25,0.14-0.4,0.08
			c-0.05-0.03-0.08-0.08-0.05-0.13c0.02-0.05,0.04-0.09,0.08-0.13c0.09-0.16,0.14-0.34,0.17-0.52c0.02-0.11,0.01-0.22-0.04-0.33
			c-0.04-0.11-0.1-0.14-0.22-0.12c-0.1,0.02-0.18,0.07-0.28,0.11c-0.18,0.12-0.36,0.25-0.51,0.42
			C87.57,55.71,87.49,55.88,87.5,56.08z M87.75,58.03c-0.02-0.21-0.09-0.38-0.17-0.55c-0.04-0.08-0.1-0.1-0.18-0.08
			c-0.23,0.04-0.47,0.1-0.7,0.14c-0.12,0.02-0.13,0.04-0.08,0.16c0.07,0.12,0.16,0.23,0.26,0.33c0.14,0.16,0.3,0.3,0.5,0.39
			c0.13,0.07,0.2,0.04,0.27-0.08C87.72,58.25,87.74,58.14,87.75,58.03z"/>
		<path class="st0" d="M91.42,57.27c-0.28,0.35-0.54,0.7-0.84,1.03c-0.04,0.06-0.09,0.1-0.13,0.15c-0.18,0.25-0.43,0.27-0.71,0.23
			c-0.12-0.02-0.2-0.08-0.24-0.17c-0.05-0.12-0.09-0.24-0.09-0.36c-0.04-1.11,0.23-2.13,0.87-3.04c0.05-0.08,0.13-0.15,0.21-0.22
			c0.16-0.14,0.34-0.18,0.54-0.13c0.12,0.04,0.24,0.09,0.36,0.14c0.18,0.09,0.28,0.25,0.35,0.42c0.04,0.13,0.05,0.25,0.07,0.38
			c0.07,0,0.05-0.06,0.07-0.08c0.26-0.79,0.51-1.59,0.77-2.38c0.15-0.47,0.33-0.91,0.5-1.37c0.11-0.26,0.13-0.27,0.37-0.13
			c0.02,0.01,0.03,0.01,0.04,0.02c0.15,0.09,0.16,0.1,0.11,0.27c-0.21,0.63-0.41,1.26-0.62,1.89c-0.27,0.84-0.56,1.66-0.84,2.49
			c-0.16,0.49-0.3,0.98-0.39,1.48c-0.02,0.15-0.02,0.31-0.01,0.47c0,0.02,0.01,0.05,0.03,0.06c0.03,0.01,0.05-0.01,0.08-0.03
			c0.11-0.14,0.23-0.28,0.33-0.43c0.29-0.41,0.58-0.81,0.86-1.23c0.03-0.05,0.07-0.12,0.13-0.13c0.04-0.01,0.09-0.02,0.12,0.01
			c0.03,0.04,0.01,0.08-0.01,0.11c-0.16,0.26-0.33,0.52-0.48,0.78c-0.17,0.27-0.35,0.54-0.51,0.81c-0.03,0.05-0.09,0.11-0.12,0.16
			c-0.14,0.22-0.36,0.25-0.6,0.23c-0.13-0.01-0.21-0.1-0.25-0.22c-0.1-0.23-0.1-0.47-0.07-0.71C91.36,57.62,91.39,57.45,91.42,57.27
			z M90.02,58.36c0.08-0.03,0.11-0.08,0.14-0.11c0.45-0.47,0.86-0.97,1.25-1.48c0.04-0.05,0.08-0.12,0.08-0.18
			c0.03-0.41,0.04-0.81-0.07-1.21c-0.03-0.11-0.08-0.21-0.14-0.3c-0.08-0.09-0.12-0.1-0.23-0.04c-0.1,0.04-0.17,0.12-0.24,0.21
			c-0.14,0.2-0.26,0.4-0.35,0.62c-0.29,0.67-0.46,1.38-0.49,2.12C89.98,58.1,89.98,58.22,90.02,58.36z"/>
		<path class="st0" d="M93.91,58.74c-0.05,0-0.09,0-0.12,0c-0.49,0.01-0.77-0.27-0.87-0.74c-0.07-0.33-0.03-0.64,0.04-0.96
			c0.16-0.71,0.48-1.34,0.97-1.87c0.18-0.21,0.4-0.38,0.68-0.46c0.17-0.03,0.34-0.02,0.5,0.05c0.09,0.04,0.16,0.09,0.25,0.12
			c0.35,0.13,0.54,0.49,0.45,0.92c-0.04,0.18-0.13,0.37-0.25,0.52c-0.26,0.31-0.58,0.55-0.97,0.7c-0.27,0.1-0.54,0.12-0.83,0.05
			c-0.15-0.03-0.16-0.02-0.2,0.12c-0.07,0.25-0.09,0.51-0.05,0.77c0.01,0.18,0.08,0.35,0.22,0.49c0.1,0.1,0.21,0.12,0.34,0.06
			c0.16-0.05,0.33-0.14,0.47-0.24c0.42-0.27,0.8-0.6,1.17-0.92c0.24-0.21,0.48-0.41,0.7-0.63c0.01-0.02,0.03-0.04,0.07-0.05
			c0.04-0.02,0.1-0.03,0.14,0.01c0.05,0.04,0.01,0.09-0.02,0.13c-0.03,0.04-0.07,0.09-0.11,0.13c-0.47,0.51-0.99,0.96-1.52,1.39
			c-0.14,0.11-0.29,0.2-0.46,0.27C94.31,58.72,94.11,58.75,93.91,58.74z M95.22,55.3c0-0.02,0-0.04,0-0.07
			c-0.01-0.2-0.05-0.22-0.23-0.14c-0.17,0.08-0.31,0.18-0.45,0.31c-0.38,0.35-0.63,0.78-0.8,1.26c-0.02,0.04-0.05,0.1-0.02,0.13
			c0.03,0.05,0.1,0.02,0.15,0c0.5-0.12,0.87-0.43,1.14-0.87C95.13,55.74,95.22,55.52,95.22,55.3z"/>
		<path class="st0" d="M100.59,53.6c-0.07,0-0.1,0.04-0.14,0.08c-0.07,0.04-0.14,0.1-0.21,0.15c-0.11,0.08-0.21,0.04-0.31-0.01
			c-0.05-0.03-0.07-0.09-0.04-0.14c0.03-0.05,0.08-0.11,0.12-0.15c0.17-0.16,0.34-0.34,0.5-0.5c0.14-0.15,0.28-0.29,0.42-0.45
			c0.07-0.09,0.14-0.11,0.24-0.05c0.09,0.04,0.18,0.08,0.28,0.12c0.13,0.05,0.14,0.08,0.11,0.22c-0.09,0.27-0.16,0.54-0.25,0.81
			c-0.64,2.03-1.29,4.06-1.97,6.08c-0.05,0.14-0.11,0.29-0.16,0.43c-0.04,0.12-0.07,0.14-0.18,0.13c-0.12-0.01-0.23-0.02-0.34-0.03
			c-0.12-0.02-0.15-0.05-0.12-0.17c0.05-0.2,0.11-0.39,0.17-0.59c0.37-1.16,0.73-2.31,1.1-3.46c0.25-0.78,0.51-1.55,0.76-2.34
			C100.58,53.69,100.61,53.65,100.59,53.6z"/>
		<path class="st0" d="M104.75,55.92c-0.13,0.19-0.27,0.38-0.41,0.56c-0.21,0.28-0.42,0.55-0.71,0.77c-0.2,0.16-0.42,0.25-0.68,0.24
			c-0.11,0-0.23,0-0.35,0c-0.28,0-0.48-0.13-0.62-0.37c-0.08-0.13-0.13-0.27-0.15-0.41c-0.13-0.64-0.04-1.26,0.17-1.87
			c0.18-0.54,0.47-1.03,0.89-1.42c0.21-0.2,0.45-0.37,0.74-0.42c0.1-0.02,0.2-0.03,0.28,0c0.21,0.04,0.4,0.09,0.6,0.14
			c0.45,0.12,0.67,0.45,0.64,0.91c0,0.04-0.01,0.08-0.02,0.14c0.05-0.03,0.08-0.08,0.1-0.11c0.15-0.29,0.3-0.58,0.41-0.89
			c0.01-0.03,0.02-0.05,0.04-0.09c0.05-0.12,0.07-0.13,0.2-0.11c0.14,0.03,0.27,0.05,0.41,0.09c0.13,0.03,0.15,0.06,0.12,0.21
			c-0.03,0.14-0.09,0.28-0.13,0.43c-0.46,1.53-0.94,3.06-1.41,4.59c-0.15,0.49-0.38,0.95-0.65,1.38c-0.21,0.34-0.48,0.53-0.88,0.56
			c-0.15,0.01-0.3,0.03-0.47,0.05c-0.02,0-0.07,0-0.09,0c-0.07-0.02-0.11-0.06-0.11-0.13c-0.01-0.06,0.03-0.1,0.09-0.11
			c0.08-0.02,0.15-0.03,0.22-0.04c0.11,0,0.18-0.06,0.25-0.13c0.05-0.06,0.1-0.13,0.15-0.19c0.29-0.43,0.51-0.91,0.67-1.41
			c0.24-0.75,0.47-1.49,0.7-2.23C104.76,56.02,104.79,55.97,104.75,55.92z M104.93,54.59c-0.14,0.01-0.18-0.06-0.2-0.16
			c-0.01-0.08-0.02-0.15-0.04-0.23c-0.03-0.25-0.08-0.49-0.24-0.67c-0.17-0.21-0.18-0.23-0.42-0.09c-0.21,0.11-0.37,0.26-0.51,0.45
			c-0.65,0.79-0.97,1.69-0.9,2.73c0.01,0.16,0.05,0.31,0.13,0.46c0.09,0.14,0.12,0.14,0.24,0.05c0.23-0.17,0.43-0.38,0.62-0.6
			c0.35-0.42,0.65-0.89,0.96-1.36C104.67,54.98,104.79,54.8,104.93,54.59z"/>
		<path class="st0" d="M107.69,57.83c0.46-0.11,0.92-0.1,1.39-0.1c0.09,0.01,0.17,0.01,0.27,0.02c0.15,0.03,0.17,0.02,0.24-0.14
			c0.14-0.39,0.28-0.79,0.43-1.18c0.43-1.13,0.84-2.26,1.3-3.37c0.04-0.11,0.09-0.21,0.14-0.32c0.05-0.11,0.08-0.13,0.2-0.09
			c0.13,0.04,0.25,0.09,0.38,0.14c0.12,0.05,0.14,0.1,0.12,0.23c-0.02,0.1-0.05,0.2-0.09,0.29c-0.2,0.63-0.45,1.24-0.66,1.87
			c-0.52,1.43-1.08,2.86-1.62,4.29c-0.09,0.24-0.18,0.48-0.28,0.72c-0.07,0.17-0.09,0.18-0.28,0.17c-0.1-0.01-0.2-0.01-0.3-0.01
			c-0.15-0.01-0.17-0.03-0.14-0.18c0.01-0.08,0.02-0.14,0.04-0.21c0.16-0.59,0.34-1.17,0.53-1.74c0.01-0.03,0.02-0.05,0.03-0.08
			c0.02-0.1,0.02-0.12-0.09-0.12c-0.22-0.02-0.43,0-0.65,0.02c-0.39,0.04-0.77,0.14-1.14,0.28c-0.18,0.06-0.36,0.08-0.54,0.03
			c-0.08-0.02-0.16-0.02-0.25-0.04c-0.13-0.02-0.16-0.09-0.11-0.21c0.03-0.05,0.07-0.11,0.11-0.16c0.38-0.53,0.75-1.09,1.09-1.65
			c0.2-0.35,0.35-0.72,0.52-1.08c0.27-0.56,0.49-1.14,0.68-1.74c0.05-0.15,0.1-0.32,0.13-0.48c0.01-0.13,0.04-0.15,0.16-0.11
			c0.07,0.02,0.14,0.04,0.21,0.06c0.2,0.08,0.26,0.17,0.24,0.39c-0.01,0.12-0.04,0.25-0.07,0.37c-0.15,0.6-0.37,1.16-0.62,1.73
			c-0.36,0.79-0.81,1.53-1.33,2.24c-0.02,0.03-0.04,0.06-0.08,0.1C107.68,57.81,107.68,57.82,107.69,57.83z"/>
		<path class="st0" d="M115.21,56.98c0.05,0.03,0.1,0.03,0.15,0.04c0.37,0.1,0.61,0.33,0.75,0.67c0.1,0.27,0.12,0.54,0.09,0.83
			c-0.07,0.55-0.28,1.04-0.7,1.43c-0.24,0.22-0.52,0.36-0.85,0.4c-0.29,0.03-0.59,0.04-0.88,0.01c-0.51-0.06-0.92-0.27-1.21-0.71
			c-0.16-0.23-0.24-0.48-0.26-0.75c-0.01-0.05,0.01-0.12,0.01-0.17c0.01-0.09,0.07-0.13,0.16-0.13c0.15-0.01,0.3-0.01,0.46,0
			c0.13,0,0.16,0.04,0.13,0.16c-0.05,0.21-0.01,0.39,0.08,0.58c0.2,0.38,0.47,0.66,0.89,0.78c0.11,0.02,0.21,0.03,0.3-0.01
			c0.17-0.07,0.33-0.16,0.46-0.29c0.55-0.54,0.74-1.22,0.62-1.97c-0.04-0.23-0.15-0.43-0.31-0.6c-0.08-0.07-0.15-0.1-0.25-0.05
			c-0.1,0.04-0.2,0.04-0.29,0.01c-0.1-0.02-0.2-0.04-0.29-0.06c-0.05-0.01-0.12-0.02-0.13-0.09c0-0.06,0.04-0.1,0.09-0.13
			c0.21-0.16,0.41-0.33,0.63-0.48c0.47-0.34,0.89-0.72,1.25-1.17c0.37-0.49,0.66-1.02,0.78-1.63c0.03-0.17,0.03-0.35,0.02-0.52
			c-0.01-0.12-0.05-0.22-0.11-0.33c-0.07-0.11-0.15-0.15-0.28-0.14c-0.64,0.07-1.21,0.33-1.68,0.77c-0.24,0.23-0.45,0.49-0.58,0.8
			c-0.13,0.27-0.17,0.56-0.11,0.88c0.02,0.05,0.03,0.12,0.07,0.17c0.08,0.12,0.12,0.21,0.32,0.16c0.04-0.01,0.1-0.01,0.15,0.01
			c0.03,0.01,0.09,0.01,0.09,0.07c0,0.04-0.03,0.06-0.05,0.09c-0.09,0.05-0.18,0.09-0.28,0.05c-0.16-0.04-0.33-0.09-0.49-0.15
			c-0.25-0.1-0.4-0.29-0.48-0.55c-0.1-0.33-0.05-0.65,0.09-0.97c0.22-0.51,0.58-0.91,1.04-1.22c0.38-0.26,0.78-0.43,1.24-0.5
			c0.24-0.04,0.47-0.02,0.68,0.06c0.2,0.08,0.38,0.15,0.56,0.24c0.36,0.16,0.52,0.46,0.54,0.85c0.02,0.24-0.03,0.47-0.1,0.7
			c-0.17,0.62-0.51,1.15-0.93,1.63c-0.38,0.42-0.81,0.78-1.27,1.12C115.28,56.9,115.23,56.91,115.21,56.98z"/>
	</g>
</g>
</svg>
